<mxfile host="www.draw.io" modified="2020-01-08T10:59:05.882Z" agent="Mozilla/5.0 (Windows NT 6.1; Win64; x64) AppleWebKit/537.36 (KHTML, like Gecko) Chrome/79.0.3945.88 Safari/537.36" etag="_6p8A78K_-EOcFeCklS4" version="12.4.9" type="github">
  <diagram id="SYigCvebZ88naulnyxO4" name="Page-1">
    <mxGraphModel dx="1422" dy="802" grid="1" gridSize="10" guides="1" tooltips="1" connect="1" arrows="1" fold="1" page="1" pageScale="1" pageWidth="827" pageHeight="1169" math="0" shadow="0">
      <root>
        <mxCell id="0"/>
        <mxCell id="1" parent="0"/>
        <mxCell id="2gNaeE1jSNDBDvlpmWLN-81" value="" style="rounded=0;whiteSpace=wrap;html=1;fontFamily=Lucida Console;fontSize=15;fillColor=#b0e3e6;strokeColor=#0e8088;" parent="1" vertex="1">
          <mxGeometry x="80" y="200" width="600" height="160" as="geometry"/>
        </mxCell>
        <mxCell id="2gNaeE1jSNDBDvlpmWLN-83" value="appA" style="ellipse;whiteSpace=wrap;html=1;aspect=fixed;fontFamily=Lucida Console;fontSize=15;fillColor=#60a917;strokeColor=#2D7600;fontColor=#ffffff;" parent="1" vertex="1">
          <mxGeometry x="170" y="240" width="80" height="80" as="geometry"/>
        </mxCell>
        <mxCell id="2gNaeE1jSNDBDvlpmWLN-85" value="appB" style="ellipse;whiteSpace=wrap;html=1;aspect=fixed;fontFamily=Lucida Console;fontSize=15;fillColor=#60a917;strokeColor=#2D7600;fontColor=#ffffff;" parent="1" vertex="1">
          <mxGeometry x="530" y="240" width="80" height="80" as="geometry"/>
        </mxCell>
        <mxCell id="2gNaeE1jSNDBDvlpmWLN-91" value="" style="endArrow=classic;html=1;fontFamily=Lucida Console;fontSize=15;exitX=1;exitY=0.5;exitDx=0;exitDy=0;fillColor=#bac8d3;strokeColor=#23445d;" parent="1" source="2gNaeE1jSNDBDvlpmWLN-83" edge="1">
          <mxGeometry width="50" height="50" relative="1" as="geometry">
            <mxPoint x="120" y="430" as="sourcePoint"/>
            <mxPoint x="530" y="280" as="targetPoint"/>
            <Array as="points">
              <mxPoint x="530" y="280"/>
            </Array>
          </mxGeometry>
        </mxCell>
        <mxCell id="2gNaeE1jSNDBDvlpmWLN-92" value="" style="edgeStyle=elbowEdgeStyle;elbow=horizontal;endArrow=classic;html=1;fontFamily=Lucida Console;fontSize=15;exitX=0;exitY=0.5;exitDx=0;exitDy=0;" parent="1" source="2gNaeE1jSNDBDvlpmWLN-83" target="2gNaeE1jSNDBDvlpmWLN-81" edge="1">
          <mxGeometry width="50" height="50" relative="1" as="geometry">
            <mxPoint x="160" y="290" as="sourcePoint"/>
            <mxPoint x="170" y="380" as="targetPoint"/>
            <Array as="points">
              <mxPoint x="130" y="320"/>
              <mxPoint x="140" y="330"/>
              <mxPoint x="150" y="280"/>
            </Array>
          </mxGeometry>
        </mxCell>
        <mxCell id="2gNaeE1jSNDBDvlpmWLN-99" value="" style="edgeStyle=segmentEdgeStyle;endArrow=classic;html=1;fontFamily=Lucida Console;fontSize=15;exitX=0;exitY=0;exitDx=0;exitDy=0;fillColor=#bac8d3;strokeColor=#23445d;" parent="1" source="2gNaeE1jSNDBDvlpmWLN-83" target="2gNaeE1jSNDBDvlpmWLN-83" edge="1">
          <mxGeometry width="50" height="50" relative="1" as="geometry">
            <mxPoint x="190" y="242" as="sourcePoint"/>
            <mxPoint x="170" y="380" as="targetPoint"/>
            <Array as="points">
              <mxPoint x="182" y="242"/>
              <mxPoint x="140" y="242"/>
              <mxPoint x="140" y="300"/>
            </Array>
          </mxGeometry>
        </mxCell>
        <mxCell id="2uNhf08QpLZ2reY3pwJs-1" value="&lt;font style=&quot;font-size: 16px&quot;&gt;&lt;br&gt;&lt;br&gt;&lt;br&gt;appA 需要向本身或其它应用 appB 发送异步通知&lt;br&gt;&lt;/font&gt;&lt;div style=&quot;text-align: left ; font-size: 16px&quot;&gt;&lt;br style=&quot;font-family: &amp;#34;lucida console&amp;#34;&quot;&gt;&lt;/div&gt;" style="text;html=1;align=center;verticalAlign=middle;resizable=0;points=[];autosize=1;" vertex="1" parent="1">
          <mxGeometry x="200" y="320" width="360" height="80" as="geometry"/>
        </mxCell>
      </root>
    </mxGraphModel>
  </diagram>
</mxfile>
